# xmcd CD database file
#
# Track frame offsets:
#	150
#	21621
#	38427
#	53854
#	69071
#	90412
#	122721
#	140854
#	155845
#	173602
#	193761
#	213457
#
# Disc length: 3202 seconds
#
# Revision: 0
# Processed by: cddbd v1.5.2PL0 Copyright (c) Steve Scherf et al.
# Submitted via: CDex 1.70beta2
#
DISCID=a70c800c
DTITLE=君の美術館 - palette ～人々が愛した幻想郷～ Disc2 -omnibus side-
DYEAR=2009
DGENRE=東方アレンジ
TTITLE0=恋した神々の唄
TTITLE1=林檎たちの午後
TTITLE2=雲の無限回廊
TTITLE3=蓬莱伝説
TTITLE4=Flowering Heart
TTITLE5=Dress
TTITLE6=桜花之恋塚
TTITLE7=上海グレイ
TTITLE8=臆病者の平安
TTITLE9=Leap in the Dark
TTITLE10=幽雅に咲かせ、墨染の桜　～ Border of life
TTITLE11=追想の郷
EXTD=YEAR: 2009
EXTT0=
EXTT1=
EXTT2=
EXTT3=
EXTT4=
EXTT5=
EXTT6=
EXTT7=
EXTT8=
EXTT9=
EXTT10=
EXTT11=
PLAYORDER=
